<svg id="b656dfd4-3073-4d63-b775-6e924a99fe5f" data-name="Layer 1" xmlns="http://www.w3.org/2000/svg" width="865.76" height="682.89" viewBox="0 0 865.76 682.89"><polygon points="481.88 440.42 769.67 439.98 787.65 411.32 770.79 382.11 573.02 382.11 481.88 440.42" fill="#2f2e41"/><path d="M710.37,405.11h1.52V418h3.59l-.17,1.37h-4.94Z" fill="#fff"/><path d="M718.77,414.84l-.68,4.56h-1.54l2.34-14.29h2.17l2.44,14.29h-1.59l-.73-4.56Zm2.21-1.4c-.5-3.15-.86-5.58-1-6.93h-.07c0,1.11-.56,4.32-.95,6.93Z" fill="#fff"/><path d="M726.57,405.11v11.11c0,1.18.42,2,1.49,2s1.47-.76,1.47-2V405.11h1.53v11.06c0,2.21-1,3.42-3,3.42s-3-1.11-3-3.38v-11.1Z" fill="#fff"/><path d="M733.53,419.4V405.11h1.82c.77,2.64,2.75,10.13,3,11.3h0c-.08-1.92-.11-3.93-.11-6.26v-5h1.44V419.4h-1.76c-.76-2.68-2.81-10.55-3.08-11.69h0c.1,1.72.14,4,.14,6.59v5.1Z" fill="#fff"/><path d="M747.73,415.3v.48c0,1.82-.33,3.81-2.92,3.81s-2.89-1.75-2.89-3.85v-7.27c0-2.29,1-3.55,2.91-3.55,2.4,0,2.83,1.7,2.83,3.57v.56h-1.54v-.67c0-1.13-.18-2.07-1.31-2.07s-1.34.84-1.34,2.1v7.42c0,1.44.31,2.38,1.39,2.38s1.31-1,1.31-2.31v-.6Z" fill="#fff"/><path d="M749.62,405.11h1.52V411h3v-5.92h1.52V419.4h-1.52v-7h-3v7h-1.52Z" fill="#fff"/><path d="M566.69,117.39l2.23-29,34.42-16.09S548.81,28.89,471.48,33.81c0,0-52.74.44-97,30.39l3.13,36.65L406.67,112S484.44,59.28,566.69,117.39Z" fill="#0071f2"/><path d="M613.17,79.84c111.3,104.59,62.35,220.28,62.35,220.28L652,273.89l-30.51,6.43C648.76,178.08,577,125.09,577,125.09l2.67-30Z" fill="#d1d3d4"/><path d="M648.07,284.27l-30.51,7.22S587,380.25,486.29,383.82l14.45,24.49-18.86,32.11s131.74,7.72,190.74-128.15Z" fill="#0071f2"/><path d="M648.07,284.27l-30.51,7.22S587,380.25,486.29,383.82l14.45,24.49-18.86,32.11s131.74,7.72,190.74-128.15Z" opacity="0.2"/><path d="M285.85,287.22S247.76,157.93,364,71.24l3.76,37.66,26.59,11.17S318.62,174.6,341,271.15l-20.12,23.68Z" fill="#2f2e41"/><path d="M287.94,298.55l37.23,8.72,19.77-22.1s26.42,89.37,127.14,98.91l-129.33,1.19S311.8,360.21,287.94,298.55Z" fill="#0071f2"/><polygon points="243.44 382.08 261.11 410.25 244.55 440.62 469.29 440.62 487.51 409.14 471.18 381.99 243.44 382.08" fill="#d1d3d4"/><path d="M477.53,58.05h-2.31V56.64h6.13v1.41h-2.3V70.93h-1.52Z" fill="#fff"/><path d="M487.55,64h-3.2v5.52H488l-.21,1.4h-4.95V56.64h4.91v1.41h-3.39v4.56h3.2Z" fill="#fff"/><path d="M490.79,66.9v.83c0,1.35.47,2.07,1.47,2.07s1.43-.74,1.43-2.31-.37-2.32-1.88-3.49-2.3-1.92-2.3-4c0-1.81.54-3.54,2.78-3.53S495,57.86,495,59.68v.66h-1.51v-.62c0-1.19-.23-1.95-1.21-1.95s-1.23.86-1.23,2c0,1.33.26,1.83,1.57,2.82,2,1.5,2.62,2.34,2.62,4.71,0,2-.58,3.84-3,3.84s-3-1.51-3-3.4V66.9Z" fill="#fff"/><path d="M498.49,58.05h-2.31V56.64h6.13v1.41H500V70.93h-1.52Z" fill="#fff"/><path d="M626.41,176.26H629c3.08,0,3.47,1.91,3.47,4.18v5.64c0,2.19-.34,4.47-3.57,4.47h-2.5Zm1.52,13h.87c1.73,0,2.13-1,2.13-2.85v-6.13c0-1.65-.3-2.66-2.12-2.66h-.88Z" fill="#2f2e41"/><path d="M639,183.63h-3.2v5.52h3.64l-.21,1.4h-4.95V176.26h4.91v1.41h-3.39v4.56H639Z" fill="#2f2e41"/><path d="M642.61,190.55l-2.49-14.29h1.65l1,6.4c.29,2,.71,4.44.84,5.92h0c.12-1.43.55-3.88.84-5.86l1-6.46H647l-2.5,14.29Z" fill="#2f2e41"/><path d="M653,183.63h-3.21v5.52h3.64l-.2,1.4h-5V176.26h4.91v1.41h-3.39v4.56H653Z" fill="#2f2e41"/><path d="M654.59,176.26h1.52v12.92h3.59l-.17,1.37h-4.94Z" fill="#2f2e41"/><path d="M666.53,179.77V187c0,2.51-1,3.77-3.17,3.77s-3-1.41-3-3.75v-7.22c0-2.43,1.1-3.7,3.12-3.7S666.53,177.51,666.53,179.77Zm-4.64-.07v7.41c0,1.61.58,2.25,1.54,2.25s1.54-.62,1.54-2.31V179.7c0-1.52-.52-2.24-1.55-2.24S661.89,178.14,661.89,179.7Z" fill="#2f2e41"/><path d="M668.36,176.26H671c2.12,0,3.13,1.07,3.13,3.38v.87c0,2.15-.64,3.74-3.24,3.74h-1v6.3h-1.52Zm1.52,6.7h.85c1.62,0,1.86-1,1.86-2.48v-.76c0-1.16-.25-2.17-1.72-2.17h-1Z" fill="#2f2e41"/><path d="M346.36,414.38v6.68h-1.52V406.77h2.49c2.15,0,3.21.92,3.21,3.28v.66c0,1.94-.69,2.73-1.46,3,.91.33,1.33,1,1.33,2.93a38.16,38.16,0,0,0,.14,4.41h-1.48a33.61,33.61,0,0,1-.15-4.3c0-1.85-.26-2.38-1.68-2.38Zm0-1.29h.93c1.36,0,1.71-.78,1.71-2.31v-.64c0-1.3-.35-2.08-1.78-2.08h-.86Z" fill="#2f2e41"/><path d="M357.45,414.14h-3.21v5.52h3.64l-.21,1.4h-4.95V406.77h4.91v1.4h-3.39v4.57h3.21Z" fill="#2f2e41"/><path d="M365.57,410.28v7.2c0,2.51-1,3.77-3.17,3.77s-3-1.41-3-3.75v-7.22c0-2.43,1.11-3.71,3.13-3.71S365.57,408,365.57,410.28Zm-4.64-.07v7.41c0,1.61.59,2.25,1.55,2.25s1.54-.62,1.54-2.32v-7.34c0-1.52-.53-2.25-1.56-2.25S360.93,408.65,360.93,410.21Zm3.65,9.9,1.92,1.52-.94,1.07-2.21-1.76Z" fill="#2f2e41"/><path d="M369.26,406.77v11.1c0,1.18.41,2,1.48,2s1.47-.76,1.47-2V406.77h1.53v11.06c0,2.21-1,3.42-3,3.42s-3-1.11-3-3.39V406.77Z" fill="#2f2e41"/><path d="M377.74,406.77v14.29h-1.52V406.77Z" fill="#2f2e41"/><path d="M381.8,414.38v6.68h-1.52V406.77h2.5c2.15,0,3.2.92,3.2,3.28v.66c0,1.94-.68,2.73-1.45,3,.9.33,1.33,1,1.33,2.93a38.16,38.16,0,0,0,.14,4.41h-1.48a31.88,31.88,0,0,1-.15-4.3c0-1.85-.27-2.38-1.68-2.38Zm0-1.29h.94c1.35,0,1.71-.78,1.71-2.31v-.64c0-1.3-.36-2.08-1.79-2.08h-.86Z" fill="#2f2e41"/><path d="M392.89,414.14h-3.2v5.52h3.64l-.21,1.4h-4.95V406.77h4.91v1.4h-3.39v4.57h3.2Z" fill="#2f2e41"/><path d="M402,415.09c0-2.62.05-5.44.09-7h0c-.36,2.4-1.45,8.69-2.21,12.94h-1.49c-.58-3.68-1.71-10.4-2.05-12.95h0c0,1.66.11,4.9.11,7.35v5.6H395V406.77h2.26c.78,4.22,1.72,9.46,1.91,11.28h0c.22-1.78,1.32-7.31,2.1-11.28h2.21v14.29H402Z" fill="#2f2e41"/><path d="M410.76,414.14h-3.21v5.52h3.64l-.21,1.4h-5V406.77h4.91v1.4h-3.39v4.57h3.21Z" fill="#2f2e41"/><path d="M412.82,421.06V406.77h1.81c.77,2.64,2.76,10.13,3,11.3h0c-.08-1.92-.11-3.93-.11-6.26v-5H419v14.29h-1.75c-.76-2.69-2.81-10.55-3.08-11.69h0c.1,1.72.13,4,.13,6.58v5.11Z" fill="#2f2e41"/><path d="M422.83,408.17h-2.31v-1.4h6.13v1.4h-2.3v12.89h-1.52Z" fill="#2f2e41"/><path d="M429,417v.83c0,1.35.46,2.07,1.47,2.07s1.42-.75,1.42-2.31-.36-2.32-1.87-3.5-2.3-1.91-2.3-4c0-1.81.54-3.55,2.78-3.53s2.69,1.42,2.69,3.24v.66h-1.51v-.62c0-1.19-.23-2-1.21-2s-1.23.86-1.23,2c0,1.32.26,1.83,1.57,2.82,2,1.5,2.61,2.33,2.61,4.71,0,2-.57,3.84-3,3.84s-3-1.51-3-3.4V417Z" fill="#2f2e41"/><path d="M340,362.88v6.67H338.5V355.26H341c2.14,0,3.2.93,3.2,3.29v.65c0,1.94-.68,2.74-1.46,3,.91.34,1.33,1,1.33,2.93a38.08,38.08,0,0,0,.14,4.41h-1.48a33.45,33.45,0,0,1-.15-4.29c0-1.85-.26-2.38-1.68-2.38Zm0-1.29H341c1.36,0,1.72-.79,1.72-2.31v-.64c0-1.31-.36-2.09-1.79-2.09H340Z" fill="#fff"/><path d="M351.11,362.63H347.9v5.52h3.64l-.2,1.4h-5V355.26h4.91v1.41H347.9v4.56h3.21Z" fill="#fff"/><path d="M355.11,369.55l-2.5-14.29h1.65l.95,6.41c.29,2,.71,4.44.84,5.92h0c.12-1.44.56-3.89.84-5.87l1-6.46h1.62L357,369.55Z" fill="#fff"/><path d="M362.67,355.26v14.29h-1.52V355.26Z" fill="#fff"/><path d="M369.93,362.63h-3.2v5.52h3.64l-.21,1.4h-5V355.26h4.91v1.41h-3.39v4.56h3.2Z" fill="#fff"/><path d="M373.47,369.55l-2-14.29h1.63c.44,3.48,1.15,9.48,1.27,11.74h0c.2-2.3,1.17-8.35,1.65-11.74h1.55c.49,3.41,1.45,9.1,1.63,11.67h0c.16-2.45.93-8.18,1.37-11.67h1.55L380,369.55h-1.64c-.47-3.34-1.35-9-1.6-11.36h0c-.3,2.58-1.16,8.05-1.66,11.36Z" fill="#fff"/><path d="M294.87,176.94h2.59c3.09,0,3.48,1.9,3.48,4.17v5.65c0,2.19-.34,4.47-3.57,4.47h-2.5Zm1.52,13h.86c1.73,0,2.14-1,2.14-2.85v-6.13c0-1.65-.3-2.66-2.12-2.66h-.88Z" fill="#fff"/><path d="M307.93,184.31h-3.21v5.52h3.64l-.2,1.4h-5V176.94h4.91v1.4h-3.39v4.57h3.21Z" fill="#fff"/><path d="M310,176.94h2.62c2.12,0,3.13,1.07,3.13,3.38v.87c0,2.15-.64,3.73-3.24,3.73h-1v6.31H310Zm1.52,6.7h.85c1.62,0,1.86-1,1.86-2.48v-.76c0-1.16-.25-2.17-1.72-2.17h-1Z" fill="#fff"/><path d="M317.7,176.94h1.52v12.92h3.59l-.17,1.37H317.7Z" fill="#fff"/><path d="M330.06,180.45v7.2c0,2.51-1,3.77-3.16,3.77s-3-1.41-3-3.75v-7.22c0-2.43,1.1-3.7,3.12-3.7S330.06,178.19,330.06,180.45Zm-4.63-.07v7.41c0,1.61.58,2.25,1.54,2.25s1.54-.62,1.54-2.32v-7.34c0-1.52-.52-2.25-1.55-2.25S325.43,178.82,325.43,180.38Z" fill="#fff"/><path d="M333.91,191.23v-5.34a1.12,1.12,0,0,0-.06-.38l-2.63-8.57h1.68c.71,2.58,1.56,5.66,1.8,7h0c.28-1.38,1.15-4.5,1.8-7h1.61l-2.65,8.66a1.93,1.93,0,0,0,0,.43v5.2Z" fill="#fff"/><rect x="473.88" y="145.12" width="20.04" height="12.94" fill="#2f2e41"/><rect x="432.58" y="158.41" width="13.69" height="12.94" rx="1.53" transform="translate(-23.57 241.81) rotate(-30)" fill="#2f2e41"/><rect x="521.9" y="158.04" width="12.94" height="13.69" rx="1.53" transform="translate(121.4 540.03) rotate(-60)" fill="#2f2e41"/><rect x="470.3" y="138.93" width="27.2" height="7.69" rx="0.76" fill="#0071f2"/><path d="M408.82,196.87a87.55,87.55,0,1,1,30,120.12A87.55,87.55,0,0,1,408.82,196.87Z" fill="#0071f2"/><path d="M423.44,191a79.79,79.79,0,1,1,9.78,112.41A79.79,79.79,0,0,1,423.44,191Z" fill="#fff"/><path d="M445.88,296.21a.79.79,0,0,1,.18,1.11l-3.75,5.24a.8.8,0,0,1-1.3-.93l3.76-5.23A.8.8,0,0,1,445.88,296.21Z" fill="#0071f2"/><path d="M527.88,181.83a.82.82,0,0,1,.18,1.12l-3.76,5.23a.8.8,0,1,1-1.29-.93l3.75-5.23A.81.81,0,0,1,527.88,181.83Z" fill="#0071f2"/><path d="M460.49,306.72a.79.79,0,0,1,.29.93l-1.43,3.79a.8.8,0,1,1-1.49-.57l1.42-3.79a.8.8,0,0,1,1-.46A.52.52,0,0,1,460.49,306.72Z" fill="#2f2e41"/><path d="M510.93,172.77a.8.8,0,0,1,.29.93l-1.43,3.79a.8.8,0,1,1-1.49-.56l1.42-3.79a.8.8,0,0,1,1-.46A.51.51,0,0,1,510.93,172.77Z" fill="#2f2e41"/><path d="M496.32,310.25a.83.83,0,0,1,.32.52l.66,4a.8.8,0,0,1-1.58.26l-.66-4a.8.8,0,0,1,.66-.92A.83.83,0,0,1,496.32,310.25Z" fill="#2f2e41"/><path d="M473,169a.83.83,0,0,1,.32.52l.66,4a.8.8,0,0,1-1.57.26l-.66-4a.8.8,0,0,1,.65-.92A.83.83,0,0,1,473,169Z" fill="#2f2e41"/><path d="M529.1,295.4a1.07,1.07,0,0,1,.16.14l2.57,3.14a.8.8,0,0,1-1.24,1L528,296.56a.8.8,0,0,1,1.08-1.16Z" fill="#2f2e41"/><path d="M438.33,184.75a1,1,0,0,1,.15.14l2.57,3.13a.8.8,0,0,1-1.23,1l-2.57-3.13a.8.8,0,0,1,1.08-1.15Z" fill="#2f2e41"/><path d="M553.87,267.58a.79.79,0,0,1,.28.92.8.8,0,0,1-1,.47l-3.79-1.43a.8.8,0,0,1,.56-1.49l3.79,1.43A.69.69,0,0,1,553.87,267.58Z" fill="#082947"/><path d="M419.93,217.13a.81.81,0,0,1,.28.93.8.8,0,0,1-1,.47l-3.79-1.43a.8.8,0,1,1,.56-1.49l3.79,1.43A.66.66,0,0,1,419.93,217.13Z" fill="#082947"/><path d="M557.61,229.67a.83.83,0,0,1,.32.52.79.79,0,0,1-.66.91l-4,.66a.8.8,0,1,1-.26-1.57l4-.66A.79.79,0,0,1,557.61,229.67Z" fill="#2f2e41"/><path d="M416.39,253a.74.74,0,0,1,.32.51.8.8,0,0,1-.66.92l-4,.66a.8.8,0,1,1-.26-1.57l4-.66A.77.77,0,0,1,416.39,253Z" fill="#2f2e41"/><path d="M541.89,195a.7.7,0,0,1,.16.14.79.79,0,0,1-.12,1.12l-3.13,2.57a.8.8,0,1,1-1-1.23l3.13-2.57A.78.78,0,0,1,541.89,195Z" fill="#2f2e41"/><path d="M431.24,285.74a.71.71,0,0,1,.15.15.79.79,0,0,1-.11,1.12l-3.13,2.57a.8.8,0,1,1-1-1.23l3.13-2.57A.8.8,0,0,1,431.24,285.74Z" fill="#2f2e41"/><path d="M478.41,308.46a.8.8,0,0,1,.32.73l-.63,6.41a.79.79,0,0,1-1.58-.16l.63-6.41a.78.78,0,0,1,.87-.71A.77.77,0,0,1,478.41,308.46Z" fill="#0071f2"/><path d="M492.23,168.41a.82.82,0,0,1,.33.72l-.64,6.42a.8.8,0,0,1-.87.71.78.78,0,0,1-.71-.87L491,169a.8.8,0,0,1,.87-.72A.84.84,0,0,1,492.23,168.41Z" fill="#0071f2"/><path d="M512.7,302.81a.75.75,0,0,1,.26.32l2.66,5.86a.8.8,0,0,1-.4,1.06.79.79,0,0,1-1.05-.4l-2.66-5.87a.79.79,0,0,1,1.19-1Z" fill="#0071f2"/><path d="M454.64,174.61a.75.75,0,0,1,.26.32l2.66,5.86a.8.8,0,1,1-1.45.66l-2.66-5.87a.79.79,0,0,1,1.19-1Z" fill="#0071f2"/><path d="M539.57,280.76l5.24,3.76a.8.8,0,1,1-.93,1.29l-5.24-3.75a.8.8,0,0,1,.93-1.3Z" fill="#0071f2"/><path d="M430.43,202.52a.79.79,0,0,1,.18,1.11.8.8,0,0,1-1.11.19l-5.24-3.76a.8.8,0,1,1,.93-1.29Z" fill="#0071f2"/><path d="M558.23,248.87a.77.77,0,0,1,.33.72.8.8,0,0,1-.87.72l-6.41-.63a.8.8,0,1,1,.16-1.59l6.41.63A.84.84,0,0,1,558.23,248.87Z" fill="#0071f2"/><path d="M418.18,235.05a.8.8,0,0,1,.33.72.81.81,0,0,1-.87.72l-6.42-.63a.81.81,0,0,1-.71-.88.8.8,0,0,1,.87-.71l6.41.63A.84.84,0,0,1,418.18,235.05Z" fill="#0071f2"/><path d="M552,211.28a.82.82,0,0,1,.26.32.81.81,0,0,1-.4,1.06L546,215.31a.78.78,0,0,1-1-.39.79.79,0,0,1,.39-1.06l5.87-2.66A.82.82,0,0,1,552,211.28Z" fill="#0071f2"/><path d="M423.84,269.34a.82.82,0,0,1,.26.32.81.81,0,0,1-.4,1.06l-5.87,2.65a.8.8,0,0,1-.66-1.45l5.87-2.66A.82.82,0,0,1,423.84,269.34Z" fill="#0071f2"/><circle cx="484.54" cy="242.29" r="50.22" transform="translate(-2.17 4.39) rotate(-0.52)" fill="#0071f2" opacity="0.16"/><path d="M528.63,250.19a.52.52,0,0,0,.23-.36.57.57,0,0,0-.46-.66l-43.79-7.37a.57.57,0,0,0-.66.46.58.58,0,0,0,.47.66l43.79,7.37A.52.52,0,0,0,528.63,250.19Z" fill="#0071f2"/><path d="M486.51,243.78a2.13,2.13,0,0,1-3,.48l-43.24-31a2.13,2.13,0,0,1,2.49-3.46l43.24,31A2.14,2.14,0,0,1,486.51,243.78Z" fill="#0071f2"/><path d="M481,275.54a2.14,2.14,0,0,1-3.34-2.1l5-31.06a2.1,2.1,0,0,1,.87-1.39,2.07,2.07,0,0,1,1.58-.36,2.1,2.1,0,0,1,1.39.86,2.16,2.16,0,0,1,.37,1.6l-5,31.06A2.1,2.1,0,0,1,481,275.54Z" fill="#0071f2"/><path d="M479.52,238.69a6.18,6.18,0,1,0,8.61-1.42A6.17,6.17,0,0,0,479.52,238.69Z" fill="#2f2e41"/><path d="M481.87,240.38a3.28,3.28,0,1,0,4.58-.76A3.27,3.27,0,0,0,481.87,240.38Z" fill="#0071f2"/><path d="M583.11,355.4h2.59c3.09,0,3.48,1.91,3.48,4.18v5.64c0,2.2-.34,4.47-3.58,4.47h-2.49Zm1.52,13h.86c1.73,0,2.14-1,2.14-2.85V359.4c0-1.65-.3-2.67-2.13-2.67h-.87Z" fill="#fff"/><path d="M595.74,362.77h-3.21v5.52h3.64l-.2,1.4h-5V355.4h4.91v1.41h-3.39v4.57h3.21Z" fill="#fff"/><path d="M598.55,365.67v.83c0,1.34.46,2.06,1.46,2.06s1.43-.74,1.43-2.3-.37-2.33-1.87-3.5-2.31-1.92-2.31-4c0-1.81.54-3.55,2.79-3.54s2.69,1.43,2.69,3.24v.67h-1.51v-.63c0-1.18-.24-2-1.21-2s-1.24.86-1.24,2c0,1.33.27,1.83,1.58,2.83,2,1.5,2.61,2.33,2.61,4.7,0,2-.57,3.84-3,3.84s-3-1.51-3-3.39v-.82Z" fill="#fff"/><path d="M606,355.4v14.29h-1.52V355.4Z" fill="#fff"/><path d="M613.86,369.69h-1.2a10.74,10.74,0,0,1-.1-1.23,2,2,0,0,1-2.1,1.42c-2,0-2.63-1.45-2.63-3.74V359c0-2.34.95-3.78,3.06-3.78,2.49,0,2.94,1.76,2.94,3.58v.36h-1.52v-.4c0-1-.12-2.15-1.43-2.15-1,0-1.49.63-1.49,2.25v7.37c0,1.41.36,2.3,1.41,2.3,1.31,0,1.53-1.21,1.53-3v-2.28h-1.59v-1.33h3.12Z" fill="#fff"/><path d="M615.79,369.69V355.4h1.82c.77,2.65,2.76,10.14,3,11.31h0c-.08-1.93-.1-3.94-.1-6.27v-5H622v14.29h-1.75c-.77-2.68-2.81-10.54-3.08-11.68h0c.09,1.72.13,4,.13,6.58v5.1Z" fill="#fff"/><path d="M255.22,645H239.34c-7.15.8-5.51-4.9-5.51-4.9-.61-18.32,3.69-26.89,3.69-26.89v1.25s-4.65,18.89,0,20.18c0,0,20.71,3.37,19.42-5.18C260.7,646.11,255.22,645,255.22,645Z" fill="#0071f2"/><path d="M325.07,564.69s-1.86,4.61,1.59,6.68l14.93,15.35a10.51,10.51,0,0,0,3.39,2.36,16.59,16.59,0,0,0,17.57-2.53s14.26-8.51-7.82-20Z" fill="#0071f2"/><polygon points="162.22 522.22 153.94 644.99 160.67 644.99 173.87 522.22 162.22 522.22" fill="#bcbec0"/><polygon points="281.27 644.99 268.07 522.22 279.2 522.22 287.48 644.99 281.27 644.99" fill="#bcbec0"/><rect x="148.72" y="497.01" width="143.74" height="27.8" rx="3.59" fill="#d1d3d4"/><path d="M213.19,497.17s13.77,1,17.09,3.06l.46-16.29S220.23,492.76,213.19,497.17Z" fill="#2f2e41"/><path d="M213.19,497.17s13.77,1,17.09,3.06l.46-16.29S220.23,492.76,213.19,497.17Z" opacity="0.5"/><polygon points="195.39 369.09 224.32 369.09 241.16 401.62 239.79 447.94 214.62 448.02 198.73 405.81 195.39 369.09" fill="#e6e7e8"/><path d="M240.38,367.09s10.23,3.68,19.76,42.27l3,38.58H247.59l-4.65-25.56-1.4-35.07-4.65-14.44Z" fill="#0071f2"/><path d="M240.38,367.09s10.23,3.68,19.76,42.27l3,38.58H247.59l-4.65-25.56-1.4-35.07-4.65-14.44Z" opacity="0.2"/><path d="M199.75,347.7l-.95,11.71-1.87,4,8.9,20.67a19.52,19.52,0,0,0,5.59,7.59c2.75,2.21,6.65,4.12,11.26,3,0,0,8.42-1.09,3-16.23l-5.93-13.1-1.25-5.83-.18-3.85S208.58,359.08,199.75,347.7Z" fill="#f9b499"/><path d="M196.93,363.39s-6.35,5.79-21,3.8a7.27,7.27,0,0,0-7,3c-3.1,4.47-8.46,14.46-16.76,36.72,0,0-14.75,35.1-5.39,40.95h8.43s-1.64-14,16.38-16.38c0,0,2.34-2.11,2.11-8.66a9.85,9.85,0,0,1,2.68-7.5.29.29,0,0,1,.49.2,53.6,53.6,0,0,0,1,9.41s4,18.72.47,28.79c0,0-5.62,14.74-6.08,19.42,0,0,4.68-11,36.51-16.62l6.32-1.4s4.68-21.77,3.51-38.15a288.67,288.67,0,0,0-11.4-30.09Z" fill="#0071f2"/><path d="M203.93,379.26l-7-15.87a18.13,18.13,0,0,1-3.77,2.17l-2.31,10.71,8.89,2.57-8.89,11.94s22.23,12.4,27.85,26.21C218.7,417,212.61,396.49,203.93,379.26Z" fill="#fff"/><path d="M220.54,367.09h19.84s2.33,20.69,4.48,31.83a22.78,22.78,0,0,0,2,5.92c1.84,3.69,5,12,1.92,21l-1.16,22.08H237.36l-.2-36.09a34.29,34.29,0,0,0-2.76-13.31C230.4,389.16,223.12,372.24,220.54,367.09Z" fill="#0071f2"/><path d="M225.64,378.37l-5.1-11.28h3.34l9.06,6-2.32,5.11,9.3,8.37s-3.43,5.85-3.06,20.94C236.86,407.52,235.92,401.6,225.64,378.37Z" fill="#fff"/><rect x="211.32" y="445.68" width="105.36" height="2.26" fill="#0071f2"/><rect x="211.32" y="445.68" width="105.36" height="2.26" fill="#fff" opacity="0.2"/><path d="M245.72,445.68l19.19-51a2.77,2.77,0,0,1,2.59-1.79h64.07a3.72,3.72,0,0,1,3.47,5.06l-18.36,47.75Z" fill="#2f2e41"/><rect x="288.27" y="401.62" width="21.49" height="5.9" rx="1.25" fill="#fff"/><path d="M172.36,473.16s-7.8,21.15,8.95,26.29c0,0,14.67,6.64,33.23-2.95a41.2,41.2,0,0,0,7.25-4.9l3.28-2.7a103,103,0,0,0,10.72-10.06c2.9-3.19,8.26-7.32,15.6-5.68,0,0,15.74,1.89,11.77,28.53l45,49.1L329.09,533l-62-76.67-51.93-1.19S177.89,461.07,172.36,473.16Z" fill="#2f2e41"/><path d="M230.74,483.94s-2.76,74,1.92,97.74c1.87.32,27.15,0,27.15,0l3.35-80s5.48-25.14-11.77-28.53c0,0-8.74-3.08-15.6,5.68Z" fill="#2f2e41"/><path d="M230.74,483.94s-2.76,74,1.92,97.74c1.87.32,27.15,0,27.15,0l3.35-80s5.48-25.14-11.77-28.53c0,0-8.74-3.08-15.6,5.68Z" opacity="0.2"/><path d="M237.52,634.64c-4.65-1.29,0-20.18,0-20.18V581.82l16.82-.09.27,13.57c1.55,5.7-.27,9.06-.27,9.06-1.55,5.68,2.6,25.1,2.6,25.1C258.23,638,237.52,634.64,237.52,634.64Z" fill="#f9b499"/><path d="M312.68,547s5.93,6.47,7.08,10.61c0,0,1,5.66,5.31,7.12a6.7,6.7,0,0,1,2.23,1.41l12.24,10.79a15.59,15.59,0,0,0,15.19-1.15s6-5.06,0-9.2L343,556.19l-17.18-20.4Z" fill="#f9b499"/><rect x="78.12" y="447.94" width="338.7" height="8.38" rx="1.77" fill="#d1d3d4"/><polygon points="102.79 456.33 89.68 644.99 96.24 645.08 116.67 456.33 102.79 456.33" fill="#bcbec0"/><polygon points="377.63 456.33 398.63 645.08 403.88 645.08 390.75 456.33 377.63 456.33" fill="#bcbec0"/><path d="M155.27,447.88l7.5.06s4.88-10.81,14.14-15.06l-5.26-1.38S154.43,432.56,155.27,447.88Z" fill="#e6e7e8"/><path d="M162.77,447.94s25.27.71,32.72-2.26l16.12-3.08a4,4,0,0,1,1.51,0c2.8.55,13.18,2.28,19.69-1.08a1.38,1.38,0,0,1,1.4,0c2.23,1.43,9.35,5.65,11.93,3l1.47-3.91a2.09,2.09,0,0,0-.36-2.09c-2.33-2.79-9.6-10.56-16.93-9a66,66,0,0,0-12.79,3.85,6.75,6.75,0,0,1-3,.63l-37.65-1.15A33.74,33.74,0,0,0,162.77,447.94Z" fill="#f9b499"/><path d="M231.9,436.37s6,.11,13.82,7.81" fill="none" stroke="#f7a48b" stroke-miterlimit="10"/><path d="M232.33,432.1s4.51-1.85,14.93,9.5" fill="none" stroke="#f7a48b" stroke-miterlimit="10"/><path d="M199.75,347.7l-.52,6.5s9.69,6.87,17.19,1.78l-15.36-10.59Z" fill="#f7a48b"/><ellipse cx="212.4" cy="326.09" rx="20.14" ry="30.2" transform="translate(-36.75 27.14) rotate(-6.73)" fill="#f9b499"/><path d="M200.21,312.14a16.34,16.34,0,0,0-3.05,7.25s.6,6-2,8.07l-3-.46s.84,7.17,2.22,10.27c0,0,.91,3.94,5.34,10.43l-.95,11.71s-21.22,1.17-21.69-12.24a20,20,0,0,1,1.32-10.41,18.14,18.14,0,0,0,1.24-6.23c.3-8.45,2.13-28.14,12.42-30.49,0,0,16.08-18.88,41.82,2.66,0,0,7.49,7.26,11.24,29.3,0,0,5,22.24-14.52,27.44,0,0-8.11,1.66-12.17,0l-.18-3.85S237,349.89,231.57,319c0,0-4.06-5.65-15.45-2.85C216.12,316.11,208.32,318.14,200.21,312.14Z" fill="#2f2e41"/><ellipse cx="193.16" cy="329.19" rx="4.18" ry="5.56" transform="matrix(0.98, -0.19, 0.19, 0.98, -59.56, 43.16)" fill="#f9b499"/><rect x="80" y="152" width="87.17" height="49.62" rx="5.95" fill="#e6e7e8"/><rect x="123.72" y="188.32" width="87.17" height="49.62" rx="5.95" fill="#d1d3d4"/><rect x="166.43" y="227" width="87.17" height="49.62" rx="5.95" fill="#e6e7e8"/><rect x="133.39" y="202.46" width="68.27" height="1" fill="#e6e7e8"/><rect x="156.6" y="217.26" width="44.73" height="1" fill="#e6e7e8"/><rect x="133.39" y="217.26" width="14.13" height="1" fill="#e6e7e8"/><rect x="89.45" y="161.68" width="68.27" height="1" fill="#d1d3d4"/><rect x="112.65" y="176.47" width="44.73" height="1" fill="#d1d3d4"/><rect x="89.45" y="176.47" width="14.13" height="1" fill="#d1d3d4"/><rect x="89.45" y="190.94" width="14.13" height="1" fill="#d1d3d4"/><rect x="177.67" y="239.01" width="16.48" height="1" fill="#d1d3d4"/><rect x="206.6" y="239.01" width="39.46" height="1" fill="#d1d3d4"/><rect x="176.78" y="253.58" width="69.28" height="1" fill="#d1d3d4"/><rect x="178.12" y="268.55" width="23.21" height="1" fill="#d1d3d4"/><g id="fd770b6e-1eac-4df2-bd21-f225ee604b1d" data-name="freepik--Plant--inject-88"><polyline points="567.99 631.67 557.74 567.25 636.37 568.22 628.63 630.84" fill="#2f2e41"/><path d="M601.93,555.49a13.39,13.39,0,0,0,13.11,1.1,14.17,14.17,0,0,0,7.14-11.28,16,16,0,0,0-13.11-.66,15.8,15.8,0,0,0-8.66,9.7" fill="#0071f2"/><path d="M637.88,569.36a13.37,13.37,0,0,0,13.1,1.1,14.11,14.11,0,0,0,7.14-11.28,16,16,0,0,0-13.1-.66,15.83,15.83,0,0,0-8.68,9.7" fill="#0071f2"/><path d="M617.7,538.38A13.41,13.41,0,0,0,628,546.49,14.15,14.15,0,0,0,640.17,541a15.11,15.11,0,0,0-20.46-6.17,14.7,14.7,0,0,0-2.63,1.79" fill="#0071f2"/><path d="M630.82,554.43a13.45,13.45,0,0,0-11.74,5.81,14.1,14.1,0,0,0-.26,13.35,15.05,15.05,0,0,0,13.88-19" fill="#0071f2"/><path d="M643.5,579.8a13.38,13.38,0,0,0,.31,13.1,14.11,14.11,0,0,0,12,5.88,16,16,0,0,0-.76-13c-2.06-3.77-5.78-5.62-10.45-6.68" fill="#0071f2"/><path d="M664.39,582.78a9,9,0,0,0-3.11-2A13.73,13.73,0,0,0,657,580a51.33,51.33,0,0,0-5.81.35,16.92,16.92,0,0,1-7.14-.63,10.9,10.9,0,0,1-5.9-5.7,32.12,32.12,0,0,1-2.53-8.69,25.69,25.69,0,0,0-3-8.93,31.9,31.9,0,0,0-6.67-6.76,32.08,32.08,0,0,1-6.35-6.45,21.33,21.33,0,0,1-3.18-14.74,20.63,20.63,0,0,1,3.87-9.51,14.84,14.84,0,0,1,1.88-2.08,4.54,4.54,0,0,1,.75-.64,4.41,4.41,0,0,1-.62.75,20,20,0,0,0-1.74,2.16,21.55,21.55,0,0,0-.32,23.68,32.23,32.23,0,0,0,6.25,6.26,31.44,31.44,0,0,1,6.83,6.94,25.36,25.36,0,0,1,3.14,9.22,32.46,32.46,0,0,0,2.44,8.52,10.26,10.26,0,0,0,5.44,5.38,16.6,16.6,0,0,0,6.86.67,52.26,52.26,0,0,1,5.87-.21,13.13,13.13,0,0,1,4.37.92,7.19,7.19,0,0,1,2.36,1.52,4.37,4.37,0,0,1,.49.56C664.36,582.69,664.41,582.76,664.39,582.78Z" fill="#0071f2"/><path d="M664.39,582.78a9,9,0,0,0-3.11-2A13.73,13.73,0,0,0,657,580a51.33,51.33,0,0,0-5.81.35,16.92,16.92,0,0,1-7.14-.63,10.9,10.9,0,0,1-5.9-5.7,32.12,32.12,0,0,1-2.53-8.69,25.69,25.69,0,0,0-3-8.93,31.9,31.9,0,0,0-6.67-6.76,32.08,32.08,0,0,1-6.35-6.45,21.33,21.33,0,0,1-3.18-14.74,20.63,20.63,0,0,1,3.87-9.51,14.84,14.84,0,0,1,1.88-2.08,4.54,4.54,0,0,1,.75-.64,4.41,4.41,0,0,1-.62.75,20,20,0,0,0-1.74,2.16,21.55,21.55,0,0,0-.32,23.68,32.23,32.23,0,0,0,6.25,6.26,31.44,31.44,0,0,1,6.83,6.94,25.36,25.36,0,0,1,3.14,9.22,32.46,32.46,0,0,0,2.44,8.52,10.26,10.26,0,0,0,5.44,5.38,16.6,16.6,0,0,0,6.86.67,52.26,52.26,0,0,1,5.87-.21,13.13,13.13,0,0,1,4.37.92,7.19,7.19,0,0,1,2.36,1.52,4.37,4.37,0,0,1,.49.56C664.36,582.69,664.41,582.76,664.39,582.78Z" fill="#0071f2"/><path d="M514.26,589.38a19.9,19.9,0,0,0-26.92-19.66,33.14,33.14,0,0,0,26.2,19.36" fill="#0071f2"/><path d="M509.07,592.11c-3.85,4.23-3.61,11-.86,16s7.49,8.57,12.24,11.74a25.84,25.84,0,0,0-11.12-29.31" fill="#0071f2"/><path d="M527.7,572.31a22.93,22.93,0,0,0,25.06,20.57l1-.11c-1.49-6.19-4-12.42-8.74-16.61s-12.32-5.76-17.59-2.23" fill="#0071f2"/><path d="M527.54,566c-1-5.64-6.55-9.71-12.2-10.25s-11.3,1.9-15.85,5.33a20.62,20.62,0,0,0,28.11,2.79" fill="#0071f2"/><path d="M498.27,613.87c-5.4,4.61-6.74,12.83-4.5,19.56s7.5,12.1,13.4,16.05c2.27-6.69,3.7-13.84,2.5-20.8s-5.39-13.66-11.84-16.49" fill="#0071f2"/><path d="M526.7,550.22a16.57,16.57,0,0,1,26.2-1.54,14.33,14.33,0,0,1-25.87.66" fill="#0071f2"/><path d="M533.32,534A21.58,21.58,0,0,1,506.4,519.6a20.8,20.8,0,0,1-.59-2.48,48.64,48.64,0,0,1,13,.18A21.21,21.21,0,0,1,530.26,523a11.47,11.47,0,0,1,3,11" fill="#0071f2"/><path d="M545.8,529.78a17.65,17.65,0,0,1-2.47-24.84,18.15,18.15,0,0,1,2.35-2.37A37.07,37.07,0,0,1,553.4,519a14,14,0,0,1,0,6.8,6.24,6.24,0,0,1-4.75,4.45" fill="#0071f2"/><g opacity="0.4"><path d="M514.26,589.38a19.9,19.9,0,0,0-26.92-19.66,33.14,33.14,0,0,0,26.2,19.36"/></g><g opacity="0.4"><path d="M509.07,592.11c-3.85,4.23-3.61,11-.86,16s7.49,8.57,12.24,11.74a25.84,25.84,0,0,0-11.12-29.31"/></g><g opacity="0.4"><path d="M527.7,572.31a22.93,22.93,0,0,0,25.06,20.57l1-.11c-1.49-6.19-4-12.42-8.74-16.61s-12.32-5.76-17.59-2.23"/></g><g opacity="0.4"><path d="M527.54,566c-1-5.64-6.55-9.71-12.2-10.25s-11.3,1.9-15.85,5.33a20.62,20.62,0,0,0,28.11,2.79"/></g><g opacity="0.4"><path d="M498.27,613.87c-5.4,4.61-6.74,12.83-4.5,19.56s7.5,12.1,13.4,16.05c2.27-6.69,3.7-13.84,2.5-20.8s-5.39-13.66-11.84-16.49"/></g><g opacity="0.4"><path d="M526.7,550.22a16.57,16.57,0,0,1,26.2-1.54,14.33,14.33,0,0,1-25.87.66"/></g><g opacity="0.4"><path d="M533.32,534A21.58,21.58,0,0,1,506.4,519.6a20.8,20.8,0,0,1-.59-2.48,48.64,48.64,0,0,1,13,.18A21.21,21.21,0,0,1,530.26,523a11.47,11.47,0,0,1,3,11"/></g><g opacity="0.4"><path d="M545.8,529.78a17.65,17.65,0,0,1-2.47-24.84,18.15,18.15,0,0,1,2.35-2.37A37.07,37.07,0,0,1,553.4,519a14,14,0,0,1,0,6.8,6.24,6.24,0,0,1-4.75,4.45"/></g><path d="M567.36,569.33a1.62,1.62,0,0,1,0-.44,7.15,7.15,0,0,1,.09-1.29c0-1.15.18-2.82.21-4.92a44.44,44.44,0,0,0-2.92-17.86,27.16,27.16,0,0,0-7.18-10.12,19.26,19.26,0,0,0-13.11-4.82,16.41,16.41,0,0,0-7.36,1.85,14.48,14.48,0,0,0-5.7,5.44c-2.85,4.72-3.57,10.61-3.28,16.37s1,11.66.39,17.3a27,27,0,0,1-2.16,8,16.72,16.72,0,0,1-4.91,6.33,24.51,24.51,0,0,1-6.75,3.46,34.56,34.56,0,0,0-6.35,2.88,23,23,0,0,0-8.34,9.09,22,22,0,0,0-2.4,9.94,23.34,23.34,0,0,0,1.26,7.68,28.06,28.06,0,0,0,3,6,2.35,2.35,0,0,1-.3-.33,12.72,12.72,0,0,1-.75-1.06,20.4,20.4,0,0,1-2.24-4.48,22.76,22.76,0,0,1-1.43-7.79,22.36,22.36,0,0,1,2.34-10.22,23.75,23.75,0,0,1,8.5-9.42c3.9-2.58,9-3.27,13-6.33s6-8.44,6.65-13.84-.2-11.23-.41-17.16.44-12,3.44-16.9a15.34,15.34,0,0,1,6-5.73,17.07,17.07,0,0,1,7.73-1.92A19.87,19.87,0,0,1,558,534.09a27.89,27.89,0,0,1,7.29,10.42,37.65,37.65,0,0,1,2.47,10.2,56.46,56.46,0,0,1,.21,7.91,37.33,37.33,0,0,1-.38,5,7.37,7.37,0,0,1-.16,1.28A1.29,1.29,0,0,1,567.36,569.33Z" fill="#0071f2"/><g opacity="0.4"><path d="M567.36,569.33a1.62,1.62,0,0,1,0-.44,7.15,7.15,0,0,1,.09-1.29c0-1.15.18-2.82.21-4.92a44.44,44.44,0,0,0-2.92-17.86,27.16,27.16,0,0,0-7.18-10.12,19.26,19.26,0,0,0-13.11-4.82,16.41,16.41,0,0,0-7.36,1.85,14.48,14.48,0,0,0-5.7,5.44c-2.85,4.72-3.57,10.61-3.28,16.37s1,11.66.39,17.3a27,27,0,0,1-2.16,8,16.72,16.72,0,0,1-4.91,6.33,24.51,24.51,0,0,1-6.75,3.46,34.56,34.56,0,0,0-6.35,2.88,23,23,0,0,0-8.34,9.09,22,22,0,0,0-2.4,9.94,23.34,23.34,0,0,0,1.26,7.68,28.06,28.06,0,0,0,3,6,2.35,2.35,0,0,1-.3-.33,12.72,12.72,0,0,1-.75-1.06,20.4,20.4,0,0,1-2.24-4.48,22.76,22.76,0,0,1-1.43-7.79,22.36,22.36,0,0,1,2.34-10.22,23.75,23.75,0,0,1,8.5-9.42c3.9-2.58,9-3.27,13-6.33s6-8.44,6.65-13.84-.2-11.23-.41-17.16.44-12,3.44-16.9a15.34,15.34,0,0,1,6-5.73,17.07,17.07,0,0,1,7.73-1.92A19.87,19.87,0,0,1,558,534.09a27.89,27.89,0,0,1,7.29,10.42,37.65,37.65,0,0,1,2.47,10.2,56.46,56.46,0,0,1,.21,7.91,37.33,37.33,0,0,1-.38,5,7.37,7.37,0,0,1-.16,1.28A1.29,1.29,0,0,1,567.36,569.33Z"/></g><path d="M681.88,555.28a16.78,16.78,0,0,0,1.18-5.76,14.3,14.3,0,0,0-1.54-6.67,14,14,0,0,0-6.4-6.19,14.41,14.41,0,0,0-5.06-1.36,16.35,16.35,0,0,0-5.65.66c-3.85,1-7.67,3.27-12.23,4.11a14.38,14.38,0,0,1-7.08-.17,10.74,10.74,0,0,1-5.78-4.61c-2.75-4.26-3.52-9.62-6.84-13.53a13.41,13.41,0,0,0-6.21-4.06A17.33,17.33,0,0,0,619,517,18.55,18.55,0,0,0,607,523.23a28.16,28.16,0,0,0-6,11.09,33.47,33.47,0,0,0-1.34,11,117.35,117.35,0,0,0,2,16.06l.73,4.36a5.81,5.81,0,0,0,.18,1.13,2.54,2.54,0,0,1,0,.39,1.2,1.2,0,0,0-.11-.38l-.26-1.11c-.22-1.06-.53-2.5-.9-4.32A108.15,108.15,0,0,1,599,545.32a33.67,33.67,0,0,1,1.26-11.2,28.89,28.89,0,0,1,6.09-11.46,21.84,21.84,0,0,1,5.52-4.42,19.1,19.1,0,0,1,14.66-1.41,14.34,14.34,0,0,1,6.55,4.32c3.5,4.21,4.26,9.58,6.89,13.63a9.85,9.85,0,0,0,5.33,4.29,13.61,13.61,0,0,0,6.68.18c4.39-.84,8.18-3,12.2-4a16.66,16.66,0,0,1,5.88-.64,14.51,14.51,0,0,1,5.27,1.47,14.17,14.17,0,0,1,8,13.4,13.45,13.45,0,0,1-.85,4.35A6.84,6.84,0,0,1,681.88,555.28Z" fill="#0071f2"/><path d="M635.88,526.74a15.33,15.33,0,0,0,14,.91,14.17,14.17,0,0,0,7.14-11.28,16.14,16.14,0,0,0-13.1-.67,15.91,15.91,0,0,0-8.67,9.69" fill="#0071f2"/><path d="M650.8,540.26a15.23,15.23,0,0,0,6.55,12.45,14.12,14.12,0,0,0,13.36.23,16.06,16.06,0,0,0-6.22-11.46,15.85,15.85,0,0,0-12.79-2.35" fill="#0071f2"/><path d="M676.66,537.27a15.33,15.33,0,0,0,14.05-.59,14.15,14.15,0,0,0,5.89-12,15.08,15.08,0,0,0-19.7,8.16A14.86,14.86,0,0,0,676,536" fill="#0071f2"/><path d="M614.17,517.78c-3.77-3.28-6.31-9-5.59-13.23a14.15,14.15,0,0,1,8.68-10.17,16.09,16.09,0,0,1,4.49,12.25,15.9,15.9,0,0,1-6.7,11.15" fill="#0071f2"/><path d="M513.18,499.26a1,1,0,0,1,.14-.35l.53-1c.47-.84,1.21-2.05,2.27-3.56a38.43,38.43,0,0,1,11.25-10.64,28,28,0,0,1,10.11-3.7,24.84,24.84,0,0,1,12.26,1.29,20,20,0,0,1,10.5,8.58c2.41,4.21,3.18,9.16,4.59,13.89a25.36,25.36,0,0,0,2.93,6.55,19.9,19.9,0,0,0,5,4.91c1.87,1.38,3.83,2.64,5.62,4.08a24.75,24.75,0,0,1,4.57,4.91,30.7,30.7,0,0,1,4.67,11.47,40.29,40.29,0,0,1,.62,10.74,81.55,81.55,0,0,1-2.74,15.26c-.47,1.77-.86,3.15-1.13,4.06a8.82,8.82,0,0,1-.46,1.4,9.11,9.11,0,0,1,.3-1.45c.23-1,.56-2.37,1-4.09a89.06,89.06,0,0,0,2.47-15.23,40.5,40.5,0,0,0-.72-10.54,29.65,29.65,0,0,0-4.64-11.12,23.27,23.27,0,0,0-4.42-4.77c-1.73-1.41-3.7-2.64-5.6-4a21.25,21.25,0,0,1-5.21-5.11,25.75,25.75,0,0,1-3-6.85c-1.42-4.81-2.21-9.68-4.52-13.71a19.2,19.2,0,0,0-10-8.28,24.57,24.57,0,0,0-11.89-1.31,26.73,26.73,0,0,0-9.83,3.52,39.33,39.33,0,0,0-11.3,10.32c-1.1,1.45-1.87,2.63-2.39,3.45C513.79,498.42,513.49,498.85,513.18,499.26Z" fill="#0071f2"/><path d="M575,516.58c-1.3-1.21-1.93-.36-3.69,0a10.88,10.88,0,0,0-4.71,2.36,19.9,19.9,0,0,0-6.45,20.88,15.52,15.52,0,0,0,14.18-23.35" fill="#0071f2"/><path d="M521.51,492.25c-.65-1.64-1.64-1.16-3.27-1.64a10.85,10.85,0,0,0-5.28.1,19.91,19.91,0,0,0-14.73,16.07A15.54,15.54,0,0,0,521,491.91" fill="#0071f2"/><path d="M586.72,549.5a18,18,0,0,0-28.17,1.38,22.16,22.16,0,0,0,14.61,5.76,22.69,22.69,0,0,0,14.74-5.94" fill="#0071f2"/><path d="M582.33,524.92a18.14,18.14,0,0,0,18.34-21.67,16.37,16.37,0,0,0-18.94,21.49" fill="#0071f2"/><path d="M563.57,496a18.18,18.18,0,0,0,23.52-10.38,18.72,18.72,0,0,0,1-4,16.3,16.3,0,0,0-25,14" fill="#0071f2"/><path d="M557.21,486.58A18.18,18.18,0,0,0,533.69,497a17.6,17.6,0,0,0-1,4A16.38,16.38,0,0,0,557.74,487" fill="#0071f2"/><path d="M549.71,481.49a18.15,18.15,0,0,0,11.38-23,17.56,17.56,0,0,0-1.72-3.67,16.38,16.38,0,0,0-10.3,26.74" fill="#0071f2"/><path d="M530.44,482.42a18.16,18.16,0,0,0-10.86-23.27,18.64,18.64,0,0,0-3.88-.95,16.29,16.29,0,0,0,14.46,24.73" fill="#0071f2"/><polygon points="556.72 624.21 562.75 631.67 636.77 631.67 641.81 624.21 556.72 624.21" fill="#2f2e41"/><polygon points="556.72 624.21 562.75 631.67 636.77 631.67 641.81 624.21 556.72 624.21" opacity="0.2"/></g></svg>